<svg width="70" height="70" viewBox="0 0 70 70" fill="none" xmlns="http://www.w3.org/2000/svg">
<path d="M24.3333 13.6667C24.3333 19.5577 19.5577 24.3333 13.6667 24.3333C7.77564 24.3333 3 19.5577 3 13.6667C3 7.77564 7.77564 3 13.6667 3C19.5577 3 24.3333 7.77564 24.3333 13.6667Z" stroke="#C4FA91" stroke-width="6"/>
<path d="M66.9993 56.3337C66.9993 62.2249 62.2239 67.0003 56.3327 67.0003C50.4415 67.0003 45.666 62.2249 45.666 56.3337C45.666 50.4425 50.4415 45.667 56.3327 45.667C62.2239 45.667 66.9993 50.4425 66.9993 56.3337Z" stroke="#9EF250" stroke-width="6"/>
<path d="M45.6656 3L35.2141 13.4514C35.0953 13.5703 35.0953 13.7631 35.2141 13.882L45.6656 24.3333" stroke="#9EF250" stroke-width="6" stroke-linecap="round" stroke-linejoin="round"/>
<path d="M24.334 67.0003L34.8133 56.521C34.9167 56.4176 34.9167 56.2497 34.8133 56.1463L24.334 45.667" stroke="#C4FA91" stroke-width="6" stroke-linecap="round" stroke-linejoin="round"/>
<path d="M35 13.667C45.0565 13.667 50.0848 13.667 53.2091 16.7912C56.3333 19.9154 56.3333 24.9437 56.3333 35.0003V45.667" stroke="#9EF250" stroke-width="6"/>
<path d="M34.9993 56.333C24.9427 56.333 19.9144 56.333 16.7902 53.2087C13.666 50.0845 13.666 45.0562 13.666 34.9997V24.333" stroke="#C4FA91" stroke-width="6"/>
</svg>
